<svg xmlns="http://www.w3.org/2000/svg" viewBox="0 0 410 404" role="img" aria-label="BBRC Digital ícone">
  <defs>
    <linearGradient id="g1" x1="100%" x2="50%" y1="0%" y2="100%">
      <stop stop-color="#3b82f6" offset="0%" />
      <stop stop-color="#1d4ed8" offset="100%" />
    </linearGradient>
    <linearGradient id="g2" x1="50%" x2="0%" y1="0%" y2="100%">
      <stop stop-color="#fbbf24" offset="0%" />
      <stop stop-color="#f97316" offset="100%" />
    </linearGradient>
  </defs>
  <path
    fill="url(#g1)"
    d="M399.641 59.525 215.07 388.348c-3.868 6.96-13.89 6.937-17.726-.041L9.355 59.52c-4.184-7.493 2.18-16.39 10.77-14.98l178.626 29.68a10 10 0 0 0 3.235-.004l187.87-29.714c8.574-1.355 14.893 7.534 10.727 15.02Z"
  />
  <path
    fill="url(#g2)"
    d="M292.965.007 156.322 28.436a10 10 0 0 0-7.923 9.746l-5.507 197.342c-.21 7.56 8.322 12.34 14.908 8.318l44.31-26.937a10 10 0 0 1 10.278-.068l40.392 24.026c6.556 3.9 15.035-.87 15.244-8.428l5.585-197.33a10 10 0 0 0-8.1-9.804L303.32 2.338c-6.42-1.197-12.405-1.44-10.356-2.331Z"
  />
</svg>
